<?xml version="1.0" encoding="utf-8"?>
<!-- Generator: Adobe Illustrator 24.3.0, SVG Export Plug-In . SVG Version: 6.00 Build 0)  -->
<svg version="1.1" id="Calque_1" xmlns="http://www.w3.org/2000/svg" xmlns:xlink="http://www.w3.org/1999/xlink" x="0px" y="0px"
	 viewBox="0 0 846.59 155.68" style="enable-background:new 0 0 846.59 155.68;" xml:space="preserve">
<style type="text/css">
	.st0{fill:#7BC5AF;}
	.st1{fill:#E5E5E4;}
	.st2{font-family:'PTSerif-Bold';}
	.st3{font-size:80.9732px;}
	.st4{font-family:'PTSerif-Regular';}
</style>
<g>
	<g>
		<path class="st0" d="M37.19,119.1c-3.11,3.16-6.13,6.22-9.22,9.37c-0.73-0.8-1.37-1.5-2.12-2.33c3-2.98,6.12-6.07,9.25-9.17
			c-4.93-4.33-11.61-3.99-17.91,0.79c-0.36-0.31-0.75-0.63-1.12-0.98c-0.33-0.32-0.63-0.68-0.93-1.01
			c4.45-5.91,13.27-6.46,22.18-1.45c2.11-2.16,4.22-4.3,6.56-6.69c-1.52-1.3-3.14-2.7-4.95-4.25c1.09-0.94,1.82-1.56,2.83-2.43
			c1.32,1.52,2.72,3.13,4.15,4.77c1.14-1.25,2.02-2.22,3.14-3.45c-1.4-1.17-3.08-2.56-4.93-4.11c1.24-1.06,1.96-1.69,2.94-2.53
			c1.37,1.55,2.79,3.16,4.31,4.88c1.12-1.26,2-2.24,3.1-3.47c-1.48-1.29-3.11-2.73-4.87-4.27c1.12-0.9,1.83-1.48,2.77-2.24
			c1.22,1.42,2.65,3.08,3.99,4.64c2.52-2.53,4.65-4.66,6.66-6.67c-1.19-2.81-2.42-5.73-3.76-8.91c-0.92,0-2.29,0-3.89,0
			c0,2.15,0,4.27,0,6.5c-1.13,0-2.03,0-3.16,0c0-2.14,0-4.26,0-6.5c-1.53,0-2.83,0-4.36,0c0,2.19,0,4.31,0,6.52
			c-1.13,0-2.03,0-3.15,0c0-2.2,0-4.32,0-6.54c-1.53,0-2.85,0-4.39,0c0,2.18,0,4.3,0,6.53c-1.13,0-2.03,0-3.15,0
			c0-2.16,0-4.28,0-6.43c-0.42-0.09-0.64-0.17-0.85-0.18c-3.28-0.14-3.28-0.14-4.18,3.02c-1.92,6.73-8.19,11.67-15.19,11.96
			c-0.22,0.01-0.44-0.06-0.75-0.11c0-0.97,0-1.87,0-2.91c7.18-0.74,11.77-4.43,13.37-11.91c-4.54,0-8.86,0-13.33,0
			c0-1.12,0-2.02,0-3.2c4.31,0,8.69,0,13.26,0c-0.64-4.49-2.71-7.73-6.29-9.88c-1.47-0.88-3.18-1.46-4.86-1.85
			c-2.42-0.56-2.45-0.43-2.06-3.44c1.51,0.25,3.08,0.32,4.53,0.77c6.18,1.92,10.11,6.09,11.53,12.4c0.36,1.59,0.9,2.2,2.48,1.96
			c0.67-0.1,1.37-0.02,2.27-0.02c0-2.29,0-4.41,0-6.66c1.11,0,2.01,0,3.12,0c0,2.12,0,4.24,0,6.51c1.57,0,2.92,0,4.49,0
			c0-2.19,0-4.31,0-6.51c0.59-0.06,0.99-0.08,1.38-0.13c1.32-0.18,1.92,0.24,1.81,1.7c-0.13,1.61-0.03,3.24-0.03,4.97
			c1.48,0,2.79,0,4.32,0c0-1.41,0-2.73,0-4.05c0-2.9,0-2.9,3.12-2.42c0,2.08,0,4.2,0,6.45c1.58,0,2.94,0,4.01,0
			c1.27-3.06,2.47-5.99,3.66-8.85c-1.96-1.96-4.12-4.12-6.56-6.56c-1.27,1.44-2.69,3.05-4.28,4.85c-0.76-0.92-1.34-1.63-2.11-2.57
			c1.52-1.3,3.19-2.72,4.95-4.23c-1.42-1.33-2.38-2.23-3.7-3.46c-1.31,1.61-2.68,3.32-4.19,5.18c-0.97-1.2-1.55-1.92-2.33-2.88
			c1.47-1.25,3.13-2.67,4.89-4.17c-1.41-1.34-2.38-2.25-3.69-3.5c-1.34,1.65-2.72,3.36-4.2,5.19c-1.07-1.07-1.72-1.72-2.6-2.6
			c1.75-1.48,3.38-2.86,4.88-4.12c-2.53-2.51-4.66-4.62-6.97-6.91c-3.98,2.97-8.78,4.22-14.1,3.02c-3.06-0.69-6.01-2.4-7.8-4.49
			c0.68-0.66,1.37-1.32,2.06-1.99c6.89,4.65,13.54,4.96,17.85,0.63c-1.59-1.52-3.18-3.06-4.78-4.57c-1.56-1.48-3.14-2.93-4.88-4.56
			c1.04-0.8,1.77-1.36,2.62-2.02c2.87,2.95,5.93,6.09,9,9.24c4.46-4.73,4.11-11.86-0.64-17.96c0.31-0.36,0.62-0.75,0.97-1.11
			c0.32-0.33,0.67-0.62,1-0.92c5.97,4.22,6.6,14.11,1.58,21.84c2.19,2.18,4.35,4.33,6.81,6.78c1.16-1.4,2.53-3.04,3.97-4.77
			c1.03,1.02,1.71,1.69,2.63,2.62c-1.66,1.49-3.25,2.93-4.85,4.37c1.16,1.07,2.13,1.96,3.43,3.14c1.22-1.46,2.61-3.14,4.12-4.97
			c0.96,1.18,1.53,1.89,2.33,2.87c-1.47,1.23-3.15,2.64-4.93,4.14c1.42,1.34,2.39,2.25,3.73,3.52c1.34-1.67,2.71-3.38,4.21-5.25
			c1.04,1.12,1.66,1.79,2.5,2.7c-1.64,1.47-3.27,2.93-4.78,4.28c2.42,2.46,4.54,4.6,6.35,6.45c2.92-1.05,5.74-2.04,8.53-3.1
			c0.33-0.12,0.68-0.59,0.73-0.95c0.5-3.29,0.27-3.54-3.04-3.54c-1.16,0-2.32,0-3.61,0c0-1.08,0-2.03,0-3.18c2.24,0,4.36,0,6.58,0
			c0-1.46,0-2.72,0-4.31c-1.44,0-2.86,0-4.28,0c-2.72,0-2.77-0.06-2.18-3.12c2.08,0,4.2,0,6.44,0c0-1.51,0-2.82,0-4.33
			c-2.15,0-4.27,0-6.54,0c0-1.15,0-2.09,0-3.24c2.19,0,4.31,0,6.49,0c0.08-0.46,0.16-0.73,0.17-1.01c0.11-3.13,0.11-3.13-2.89-3.94
			c-6.33-1.7-11.23-7.32-12.03-13.81c-0.08-0.68-0.07-1.36-0.1-2.16c1.06,0,1.96,0,3.03,0c0.29,4.46,2.03,8.21,5.71,10.88
			c1.81,1.31,3.82,2.15,6.29,2.35c0-2.3,0-4.44,0-6.59c0-2.15,0-4.3,0-6.61c1.04,0,1.99,0,3.14,0c0,4.37,0,8.71,0,13.05
			c6-0.01,10.49-4.93,12.06-13.09c0.93,0,1.88,0,3,0c-0.25,6.07-2.72,10.78-7.77,13.94c-1.74,1.09-3.8,1.75-5.8,2.29
			c-1.13,0.3-1.6,0.64-1.49,1.8c0.08,0.86,0.02,1.73,0.02,2.82c2.24,0,4.36,0,6.6,0c0,1.12,0,2.02,0,3.16c-2.08,0-4.2,0-6.46,0
			c0,1.58,0,2.93,0,4.43c2.14,0,4.22,0,6.44,0c0,1.09,0,2.03,0,3.14c-2.14,0-4.22,0-6.44,0c0,1.47,0,2.77,0,4.31
			c2.08,0,4.2,0,6.45,0c0,1.12,0,2.02,0,3.15c-2.06,0-4.18,0-6.45,0c0,1.58,0,2.94,0,4.06c3,1.23,5.92,2.43,8.83,3.63
			c1.91-1.94,4.05-4.12,6.45-6.55c-1.38-1.2-3-2.61-4.67-4.06c0.96-0.88,1.66-1.53,2.62-2.41c1.33,1.54,2.72,3.16,4.1,4.76
			c1.19-1.26,2.09-2.22,3.27-3.47c-1.47-1.2-3.16-2.59-4.93-4.05c1.2-1.1,1.9-1.76,2.92-2.7c1.39,1.62,2.79,3.24,4.22,4.92
			c1.18-1.2,2.1-2.14,3.2-3.25c-1.58-1.39-3.18-2.8-5.04-4.43c1.22-0.86,2-1.42,3.05-2.16c1.1,1.29,2.49,2.92,3.76,4.41
			c2.44-2.47,4.54-4.6,6.83-6.92c-2.88-3.86-4.18-8.6-3.02-13.86c0.68-3.08,2.12-5.76,4.53-8.14c0.7,0.77,1.35,1.48,2.08,2.28
			c-2.56,2.82-3.96,6.11-3.83,9.97c0.1,2.82,0.99,5.35,2.86,7.84c1.62-1.61,3.19-3.13,4.7-4.7c1.53-1.58,3.01-3.21,4.62-4.95
			c0.82,1.05,1.39,1.77,2.07,2.63c-2.89,2.84-6.01,5.92-9.13,9c4.5,4.38,11.64,4.04,17.89-0.68c0.61,0.69,1.24,1.41,1.99,2.26
			c-2.91,2.92-6.54,4.47-10.75,4.7c-4.24,0.24-8.02-1.12-11.24-3.58c-2.25,2.25-4.38,4.38-6.71,6.71c1.52,1.35,3.12,2.77,4.86,4.32
			c-0.97,0.88-1.69,1.52-2.53,2.28c-1.42-1.53-2.88-3.09-4.46-4.8c-1.18,1.25-2.12,2.24-3.29,3.49c1.6,1.4,3.21,2.81,4.86,4.26
			c-0.93,0.91-1.62,1.58-2.51,2.45c-1.38-1.59-2.79-3.2-4.32-4.95c-1.25,1.3-2.2,2.28-3.45,3.57c1.67,1.45,3.29,2.85,5,4.34
			c-0.97,0.88-1.68,1.53-2.71,2.47c-1.36-1.6-2.75-3.23-4.06-4.78c-2.37,2.4-4.49,4.55-6.37,6.45c0.97,2.71,1.96,5.53,3.02,8.32
			c0.13,0.33,0.6,0.72,0.95,0.75c1.09,0.1,2.19,0.04,3.54,0.04c0-1.53,0-2.91,0-4.28c0-2.72,0-2.72,3.19-2.32
			c0,1.55,0.09,3.16-0.03,4.75c-0.1,1.43,0.34,2.05,1.83,1.87c0.79-0.1,1.59-0.02,2.6-0.02c0-2.34,0-4.47,0-6.69c1.1,0,2,0,3.1,0
			c0,2.2,0,4.33,0,6.57c1.51,0,2.81,0,4.37,0c0-1.45,0-2.82,0-4.2c0-2.73,0-2.73,3.13-2.27c0,2.08,0,4.19,0,6.45
			c1.59,0,2.95,0,4.43,0c0.76-5.15,3.14-9.34,7.56-12.22c2.69-1.76,5.64-2.7,8.86-2.64c0.68,2.7,0.56,2.91-1.85,3.26
			c-5.79,0.85-10.42,5.54-11.23,11.64c4.4,0,8.77,0,13.24,0c0.05,0.78,0.07,1.29,0.13,1.8c0.14,1.15-0.34,1.51-1.48,1.49
			c-3.32-0.07-6.64-0.02-9.96-0.02c-0.62,0-1.24,0-1.88,0c0.51,6.3,4.33,9.74,13.22,12.09c0,0.88,0,1.78,0,2.67
			c-6.9,1.35-14.03-4.91-16.68-14.65c-1.34,0-2.71,0-4.31,0c0,2.2,0,4.32,0,6.53c-1.13,0-2.03,0-3.11,0c0-2.16,0-4.24,0-6.48
			c-1.51,0-2.86,0-4.37,0c0,2.13,0,4.2,0,6.43c-1.1,0-2.03,0-3.14,0c0-2.12,0-4.2,0-6.43c-1.51,0-2.86,0-4.44,0
			c0,2.14,0,4.27,0,6.48c-1.13,0-2.03,0-3.16,0c0-2.19,0-4.31,0-6.51c-0.55-0.06-0.88-0.11-1.22-0.13
			c-2.97-0.11-2.84-0.06-3.77,2.73c-0.73,2.18-1.84,4.23-2.75,6.26c2.02,2.02,4.15,4.15,6.4,6.4c1.38-1.48,2.83-3.05,4.43-4.77
			c0.87,0.97,1.51,1.69,2.37,2.64c-1.6,1.36-3.24,2.74-5.06,4.29c1.42,1.21,2.43,2.06,3.73,3.17c1.2-1.47,2.59-3.16,4.08-4.99
			c1.08,1.25,1.71,1.99,2.56,2.98c-1.51,1.33-3.12,2.75-4.68,4.12c1.14,1.16,2.06,2.1,3.21,3.28c1.29-1.57,2.65-3.22,4.12-5.01
			c1.17,1.09,1.87,1.74,2.78,2.59c-1.73,1.48-3.35,2.87-4.82,4.14c2.52,2.49,4.69,4.63,6.94,6.85c8.71-4.81,16.67-4.38,21.93,1.55
			c-0.64,0.67-1.29,1.36-2.05,2.16c-3.11-2.82-6.63-4.25-10.75-3.9c-2.6,0.22-4.98,1.05-7.1,2.82c3.18,3.11,6.29,6.16,9.57,9.37
			c-0.98,0.84-1.71,1.47-2.56,2.19c-2.98-3.05-6.02-6.15-9.04-9.25c-4.36,3.88-4.06,10.88,0.62,17.95c-0.7,0.53-1.43,1.09-2.22,1.68
			c-5.63-3.58-6.27-13.46-1.26-21.78c-2.15-2.16-4.27-4.3-6.73-6.77c-1.26,1.56-2.64,3.27-4.13,5.12c-1.08-1.11-1.71-1.76-2.58-2.65
			c1.72-1.46,3.35-2.84,5.19-4.4c-1.45-1.27-2.47-2.16-3.71-3.25c-1.29,1.49-2.7,3.11-4.23,4.88c-0.95-1.07-1.59-1.79-2.45-2.76
			c1.54-1.33,3.16-2.72,4.88-4.21c-1.32-1.17-2.3-2.04-3.6-3.19c-1.17,1.45-2.54,3.15-4.11,5.1c-1.05-1.29-1.63-2.01-2.43-2.99
			c1.52-1.28,3.19-2.69,4.73-3.99c-2.54-2.55-4.66-4.68-6.54-6.57c-2.77,1-5.58,1.99-8.37,3.04c-0.33,0.12-0.7,0.6-0.73,0.94
			c-0.09,1.09-0.03,2.19-0.03,3.51c2.26,0,4.38,0,6.61,0c0,1.12,0,2.02,0,3.15c-2.11,0-4.23,0-6.48,0c0,1.53,0,2.84,0,4.37
			c2.09,0,4.21,0,6.46,0c0,1.11,0,2.01,0,3.14c-2.08,0-4.2,0-6.45,0c0,1.53,0,2.83,0,4.37c2.1,0,4.22,0,6.46,0c0,1.13,0,2.03,0,3.16
			c-2.09,0-4.21,0-6.47,0c0,1.58,0,2.94,0,4.44c5.05,0.76,9.21,3.08,12.1,7.39c1.82,2.72,2.75,5.72,2.76,9.14c-1.02,0-1.92,0-2.99,0
			c-0.76-7.17-4.48-11.8-12.03-13.34c0,4.57,0,8.92,0,13.36c-1.1,0-2,0-3.11,0c0-4.4,0-8.74,0-13.07
			c-5.88-0.16-10.59,4.96-12.11,13.03c-0.86,0-1.76,0-2.68,0c-1.8-6.29,4.74-13.78,14.65-16.62c0-1.29,0-2.61,0-4.2
			c-2.16,0-4.33,0-6.6,0c0-1.17,0-2.07,0-3.18c2.2,0,4.32,0,6.57,0c0-1.51,0-2.81,0-4.37c-1.41,0-2.79,0-4.16,0
			c-2.74,0-2.74,0-2.34-3.06c2.09,0,4.21,0,6.48,0c0-1.55,0-2.9,0-4.46c-2.17,0-4.3,0-6.54,0c0-1.11,0-2.01,0-3.12
			c2.15,0,4.27,0,6.68,0c0-1.4,0.06-2.6-0.04-3.79c-0.03-0.3-0.52-0.68-0.88-0.81c-2.69-1.01-5.4-1.97-8.13-2.95
			c-1.82,1.84-3.96,4.01-6.36,6.43c1.35,1.14,2.98,2.53,4.76,4.04c-1.04,0.96-1.74,1.6-2.73,2.51c-1.37-1.59-2.77-3.21-4.29-4.97
			c-1.14,1.31-2.01,2.3-3.07,3.51c1.46,1.24,3.12,2.65,5,4.25c-1.25,0.94-1.99,1.5-2.99,2.25c-1.19-1.41-2.59-3.08-4.15-4.93
			c-1.27,1.54-2.12,2.57-3.18,3.86c1.41,1.19,3.07,2.61,4.92,4.17c-1.12,0.98-1.81,1.58-2.75,2.4c-1.36-1.57-2.8-3.22-4.16-4.79
			c-2.48,2.53-4.59,4.67-6.82,6.94c2.8,3.73,4.12,8.14,3.3,13.06c-0.57,3.43-2.06,6.4-4.67,9.03c-0.73-0.69-1.43-1.35-2.24-2.12
			c2.91-3.19,4.29-6.84,3.9-11.08C39.94,123.4,38.9,120.95,37.19,119.1z M87.34,69.65c-2.39,2.4-4.45,4.47-6.48,6.51
			c2.75,0,5.66,0,9.13,0C89.03,73.82,88.19,71.75,87.34,69.65z M68.22,88.88c2,0.81,4.09,1.66,6.45,2.62c0-3.46,0-6.38,0-9.14
			C72.64,84.42,70.59,86.49,68.22,88.88z M68.46,66.75c2.25,2.28,4.32,4.38,6.18,6.26c0-2.51,0-5.43,0-8.83
			C72.26,65.16,70.18,66.03,68.46,66.75z M65.34,69.64c-0.85,2.1-1.71,4.2-2.64,6.5c3.44,0,6.36,0,9.15,0
			C69.77,74.06,67.7,72,65.34,69.64z M84.6,66.9c-2.13-0.88-4.21-1.74-6.52-2.7c0,3.39,0,6.33,0,9.27
			C80.18,71.36,82.2,69.32,84.6,66.9z M65.31,85.96c2.32-2.33,4.37-4.38,6.38-6.4c-2.72,0-5.64,0-9.04,0
			C63.63,81.9,64.49,83.98,65.31,85.96z M80.8,79.56c2.1,2.11,4.17,4.18,6.5,6.52c0.86-2.07,1.72-4.16,2.69-6.52
			C86.58,79.56,83.69,79.56,80.8,79.56z M84.21,88.98c-2.27-2.3-4.32-4.39-6.12-6.21c0,2.46,0,5.37,0,8.74
			C80.43,90.54,82.47,89.7,84.21,88.98z"/>
	</g>
	<text transform="matrix(1 0 0 1 180.3511 108.31)"><tspan x="0" y="0" class="st1 st2 st3">Valhalla</tspan><tspan x="440.41" y="0" class="st1 st4 st3"> Park</tspan></text>
</g>
</svg>
